<?xml version="1.0" encoding="utf-8"?>
<svg version="1.1" xmlns="http://www.w3.org/2000/svg" xmlns:xlink="http://www.w3.org/1999/xlink" x="0px" y="0px"
	 viewBox="0 0 300 300" style="enable-background:new 0 0 300 300;" xml:space="preserve">
<style type="text/css">
	.st3{fill:#63A1E8;}
	.st7{fill:none;stroke:#63A1E8;stroke-width:15.5;stroke-linecap:round;stroke-linejoin:round;stroke-miterlimit:10;}
	.st8{fill:none;stroke:#63A1E8;stroke-width:15.5;stroke-linecap:round;stroke-linejoin:round;}
	.st9{fill:none;stroke:#63A1E8;stroke-width:21;stroke-linecap:round;}
</style>
<g id="original">
</g>
<g id="Layer_2">
	<path class="st3" d="M186.7,179.1h-15.1c-4.3,0-7.8-3.5-7.8-7.8s3.5-7.8,7.8-7.8h15.1c4.3,0,7.8,3.5,7.8,7.8S191,179.1,186.7,179.1
		z"/>
	<path class="st3" d="M219.1,197.6c-1.3,0-2.6-0.3-3.9-1l-31.8-18.4c-3.7-2.1-5-6.9-2.8-10.6c2.1-3.7,6.9-5,10.6-2.8l31.8,18.4
		c3.7,2.1,5,6.9,2.8,10.6C224.4,196.2,221.7,197.6,219.1,197.6z"/>
	<polyline class="st7" points="171.6,137.6 197.7,137.6 219.3,137.6 	"/>
	<line class="st7" x1="197.7" y1="177.6" x2="219.3" y2="164.8"/>
	<path class="st3" d="M150,237.7c-4.3,0-7.8-3.5-7.8-7.8V70c0-4.3,3.5-7.8,7.8-7.8s7.8,3.5,7.8,7.8v160
		C157.7,234.3,154.3,237.7,150,237.7z"/>
	<path class="st3" d="M80.7,197.8c-2.7,0-5.3-1.4-6.7-3.9c-2.1-3.7-0.9-8.4,2.8-10.6l57.7-33.3l-57.7-33.3c-3.7-2.1-5-6.9-2.8-10.6
		c2.1-3.7,6.9-5,10.6-2.8l69.3,40c2.4,1.4,3.9,3.9,3.9,6.7s-1.5,5.3-3.9,6.7l-69.3,40C83.4,197.4,82,197.8,80.7,197.8z"/>
	<polyline class="st8" points="80.7,134.9 102.3,122.4 102.3,97.6 	"/>
	<path id="border" class="st9" d="M150.5,25.3l107.3,61.9c0.3,0.2,0.5,0.5,0.5,0.9v123.8c0,0.4-0.2,0.7-0.5,0.9l-107.3,61.9
		c-0.3,0.2-0.7,0.2-1,0L42.2,212.8c-0.3-0.2-0.5-0.5-0.5-0.9V88.1c0-0.4,0.2-0.7,0.5-0.9l107.3-61.9
		C149.8,25.1,150.2,25.1,150.5,25.3z"/>
	<circle class="st3" cx="219.3" cy="110" r="11.1"/>
	<circle class="st3" cx="219.3" cy="190" r="11.1"/>
	<polyline class="st8" points="102.3,202.4 102.3,177.6 80.7,165.1 	"/>
	<polyline class="st8" points="171.6,217.6 150,205.1 128.4,217.6 	"/>
	<polyline class="st8" points="128.4,82.4 150,94.9 171.6,82.4 	"/>
	<path class="st3" d="M197.7,145.3c-4.3,0-7.8-3.5-7.8-7.8v-15.1c0-2.8,1.5-5.3,3.9-6.7l21.6-12.4c3.7-2.1,8.4-0.9,10.6,2.8
		c2.1,3.7,0.9,8.4-2.8,10.6l-17.7,10.2v10.6C205.5,141.8,202,145.3,197.7,145.3z"/>
</g>
</svg>
