<?xml version="1.0" encoding="UTF-8"?>
<svg id="Layer_1" data-name="Layer 1" xmlns="http://www.w3.org/2000/svg" viewBox="0 0 944.76 736">
  <defs>
    <style>
      .cls-1 {
        fill: #fff;
        stroke-width: 0px;
      }
    </style>
  </defs>
  <path class="cls-1" d="m944.76,371.81c0,70.79-47.33,130.53-112.07,149.3-21.27,122.08-127.76,214.89-255.93,214.89-62.07,0-119.06-21.77-163.74-58.09-42.13,28.04-92.71,44.38-147.12,44.38C119.04,722.29,0,603.24,0,456.38c0-102.02,57.45-190.62,141.77-235.21,2.31-87.19,73.72-157.17,161.46-157.17,41.46,0,79.26,15.62,107.86,41.29C446.87,42.41,514.48,0,592,0c114.87,0,208,93.13,208,208,0,2.93-.06,5.84-.18,8.73,80.95,5.39,144.94,72.77,144.94,155.08Z"/>
</svg>